<?xml version="1.0" encoding="UTF-8" standalone="no"?>
<!DOCTYPE svg PUBLIC "-//W3C//DTD SVG 1.1//EN" 
  "http://www.w3.org/Graphics/SVG/1.1/DTD/svg11.dtd">
<svg width="8" height="16"
     xmlns="http://www.w3.org/2000/svg" version="1.1">
 <path d="  M 0,0  L 0,16  L 8,16  L 8,0  Z  M 1,5  L 2,5  L 2,3  L 3,3  L 3,2  L 5,2  L 5,3  L 6,3  L 6,5  L 7,5  L 7,10  L 6,10  L 6,7  L 2,7  L 2,10  L 1,10  Z  " style="fill:rgb(0, 0, 0); fill-opacity:0.000; stroke:none;" />
 <path d="  M 3,3  L 3,5  L 2,5  L 2,6  L 6,6  L 6,5  L 5,5  L 5,3  Z  " style="fill:rgb(0, 0, 0); fill-opacity:0.000; stroke:none;" />
 <path d="  M 6,10  L 7,10  L 7,5  L 6,5  L 6,6  L 2,6  L 2,5  L 1,5  L 1,10  L 2,10  L 2,7  L 6,7  Z  " style="fill:rgb(0, 0, 0); fill-opacity:1.000; stroke:none;" />
 <path d="  M 3,5  L 3,3  L 2,3  L 2,5  Z  " style="fill:rgb(0, 0, 0); fill-opacity:1.000; stroke:none;" />
 <path d="  M 3,2  L 3,3  L 5,3  L 5,2  Z  " style="fill:rgb(0, 0, 0); fill-opacity:1.000; stroke:none;" />
 <path d="  M 5,5  L 6,5  L 6,3  L 5,3  Z  " style="fill:rgb(0, 0, 0); fill-opacity:1.000; stroke:none;" />
</svg>
