<?xml version="1.0" encoding="UTF-8" standalone="no"?>
<!DOCTYPE svg PUBLIC "-//W3C//DTD SVG 1.1//EN" 
  "http://www.w3.org/Graphics/SVG/1.1/DTD/svg11.dtd">
<svg width="8" height="16"
     xmlns="http://www.w3.org/2000/svg" version="1.1">
 <path d="  M 3,10  L 2,10  L 2,9  L 1,9  L 1,7  L 2,7  L 2,6  L 4,6  L 4,14  L 3,14  Z  M 0,0  L 0,16  L 8,16  L 8,0  Z  M 1,13  L 2,13  L 2,14  L 1,14  Z  M 3,15  L 2,15  L 2,14  L 3,14  Z  " style="fill:rgb(0, 0, 0); fill-opacity:0.000; stroke:none;" />
 <path d="  M 2,9  L 3,9  L 3,7  L 2,7  Z  " style="fill:rgb(0, 0, 0); fill-opacity:0.000; stroke:none;" />
 <path d="  M 2,7  L 1,7  L 1,9  L 2,9  Z  " style="fill:rgb(0, 0, 0); fill-opacity:1.000; stroke:none;" />
 <path d="  M 1,13  L 1,14  L 2,14  L 2,13  Z  " style="fill:rgb(0, 0, 0); fill-opacity:1.000; stroke:none;" />
 <path d="  M 3,9  L 2,9  L 2,10  L 3,10  L 3,14  L 4,14  L 4,6  L 2,6  L 2,7  L 3,7  Z  " style="fill:rgb(0, 0, 0); fill-opacity:1.000; stroke:none;" />
 <path d="  M 3,14  L 2,14  L 2,15  L 3,15  Z  " style="fill:rgb(0, 0, 0); fill-opacity:1.000; stroke:none;" />
</svg>
