<?xml version="1.0" encoding="UTF-8" standalone="no"?>
<!DOCTYPE svg PUBLIC "-//W3C//DTD SVG 1.1//EN" 
  "http://www.w3.org/Graphics/SVG/1.1/DTD/svg11.dtd">
<svg width="8" height="16"
     xmlns="http://www.w3.org/2000/svg" version="1.1">
 <path d="  M 0,0  L 0,16  L 8,16  L 8,0  Z  M 6,8  L 6,9  L 5,9  L 5,10  L 4,10  L 4,9  L 3,9  L 3,10  L 2,10  L 2,9  L 1,9  L 1,8  L 2,8  L 2,7  L 1,7  L 1,6  L 2,6  L 2,5  L 3,5  L 3,6  L 4,6  L 4,5  L 5,5  L 5,6  L 6,6  L 6,7  L 5,7  L 5,8  Z  " style="fill:rgb(0, 0, 0); fill-opacity:0.000; stroke:none;" />
 <path d="  M 3,8  L 4,8  L 4,7  L 3,7  Z  " style="fill:rgb(0, 0, 0); fill-opacity:0.000; stroke:none;" />
 <path d="  M 3,10  L 3,9  L 4,9  L 4,10  L 5,10  L 5,9  L 6,9  L 6,8  L 5,8  L 5,7  L 6,7  L 6,6  L 5,6  L 5,5  L 4,5  L 4,6  L 3,6  L 3,5  L 2,5  L 2,6  L 1,6  L 1,7  L 2,7  L 2,8  L 1,8  L 1,9  L 2,9  L 2,10  Z  M 4,8  L 3,8  L 3,7  L 4,7  Z  " style="fill:rgb(0, 0, 0); fill-opacity:1.000; stroke:none;" />
</svg>
