<?xml version="1.0" encoding="UTF-8" standalone="no"?>
<!DOCTYPE svg PUBLIC "-//W3C//DTD SVG 1.1//EN" 
  "http://www.w3.org/Graphics/SVG/1.1/DTD/svg11.dtd">
<svg width="8" height="16"
     xmlns="http://www.w3.org/2000/svg" version="1.1">
 <path d="  M 0,0  L 0,16  L 8,16  L 8,0  Z  M 6,9  L 5,9  L 5,7  L 6,7  Z  M 7,9  L 7,10  L 6,10  L 6,9  Z  M 3,5  L 2,5  L 2,3  L 3,3  Z  M 4,5  L 4,6  L 3,6  L 3,5  Z  M 5,6  L 5,7  L 4,7  L 4,6  Z  M 1,3  L 1,2  L 2,2  L 2,3  Z  " style="fill:rgb(0, 0, 0); fill-opacity:0.000; stroke:none;" />
 <path d="  M 1,2  L 1,3  L 2,3  L 2,2  Z  " style="fill:rgb(0, 0, 0); fill-opacity:1.000; stroke:none;" />
 <path d="  M 3,5  L 3,3  L 2,3  L 2,5  Z  " style="fill:rgb(0, 0, 0); fill-opacity:1.000; stroke:none;" />
 <path d="  M 3,6  L 4,6  L 4,5  L 3,5  Z  " style="fill:rgb(0, 0, 0); fill-opacity:1.000; stroke:none;" />
 <path d="  M 5,7  L 5,6  L 4,6  L 4,7  Z  " style="fill:rgb(0, 0, 0); fill-opacity:1.000; stroke:none;" />
 <path d="  M 6,7  L 5,7  L 5,9  L 6,9  Z  " style="fill:rgb(0, 0, 0); fill-opacity:1.000; stroke:none;" />
 <path d="  M 7,9  L 6,9  L 6,10  L 7,10  Z  " style="fill:rgb(0, 0, 0); fill-opacity:1.000; stroke:none;" />
</svg>
